<?xml version="1.0" encoding="utf-8"?>
<!-- Generator: Adobe Illustrator 25.0.1, SVG Export Plug-In . SVG Version: 6.00 Build 0)  -->
<svg version="1.1" xmlns="http://www.w3.org/2000/svg" xmlns:xlink="http://www.w3.org/1999/xlink" x="0px" y="0px"
	 viewBox="0 0 1024 768" style="enable-background:new 0 0 1024 768;" xml:space="preserve">
<style type="text/css">
	.st0{opacity:0.45;}
	.st1{fill:url(#SVGID_1_);stroke:#E5482E;stroke-width:4;stroke-miterlimit:10;}
	.st2{fill:url(#SVGID_2_);stroke:#E5482E;stroke-width:4;stroke-miterlimit:10;}
	.st3{fill:url(#SVGID_3_);stroke:#E5482E;stroke-width:4;stroke-miterlimit:10;}
	.st4{fill:url(#SVGID_4_);stroke:#E5482E;stroke-width:4;stroke-miterlimit:10;}
	.st5{fill:url(#SVGID_5_);stroke:#E5482E;stroke-width:4;stroke-miterlimit:10;}
	.st6{fill:url(#SVGID_6_);stroke:#E5482E;stroke-width:4;stroke-miterlimit:10;}
	.st7{fill:url(#SVGID_7_);stroke:#E5482E;stroke-width:4;stroke-miterlimit:10;}
	.st8{fill:url(#SVGID_8_);stroke:#E5482E;stroke-width:4;stroke-miterlimit:10;}
	.st9{fill:url(#SVGID_9_);stroke:#E5482E;stroke-width:4;stroke-miterlimit:10;}
	.st10{fill:url(#SVGID_10_);stroke:#E5482E;stroke-width:4;stroke-miterlimit:10;}
	.st11{fill:url(#SVGID_11_);stroke:#E5482E;stroke-width:4;stroke-miterlimit:10;}
	.st12{fill:none;}
	.st13{font-family:'MyriadPro-Regular';}
	.st14{font-size:30px;}
	.st15{font-size:30px;glyph-orientation-vertical:0;writing-mode:tb;}
	.st16{letter-spacing:3.13;}
	.st17{fill:none;stroke:#E5482E;stroke-width:4;stroke-miterlimit:10;}
	.st18{fill:#E5482E;}
</style>
<g id="Capa_1" class="st0">
</g>
<g id="Capa_4">
</g>
<g id="Capa_2">
	<linearGradient id="SVGID_1_" gradientUnits="userSpaceOnUse" x1="191.5" y1="323" x2="798.5" y2="323">
		<stop  offset="0" style="stop-color:#FFFFFF"/>
		<stop  offset="0.0985" style="stop-color:#FEF7F6;stop-opacity:0.9606"/>
		<stop  offset="0.2623" style="stop-color:#FBE0DC;stop-opacity:0.8951"/>
		<stop  offset="0.4713" style="stop-color:#F5BCB3;stop-opacity:0.8115"/>
		<stop  offset="0.7173" style="stop-color:#EE8A79;stop-opacity:0.7131"/>
		<stop  offset="0.9917" style="stop-color:#E54A30;stop-opacity:0.6033"/>
		<stop  offset="1" style="stop-color:#E5482E;stop-opacity:0.6"/>
	</linearGradient>
	<polygon class="st1" points="191.5,129.5 191.5,516.5 798.5,516.5 798.5,129.5 292.67,129.5 	"/>
	<linearGradient id="SVGID_2_" gradientUnits="userSpaceOnUse" x1="192" y1="194" x2="798.5" y2="194">
		<stop  offset="0" style="stop-color:#FFFFFF"/>
		<stop  offset="0.0985" style="stop-color:#FEF7F6;stop-opacity:0.9606"/>
		<stop  offset="0.2623" style="stop-color:#FBE0DC;stop-opacity:0.8951"/>
		<stop  offset="0.4713" style="stop-color:#F5BCB3;stop-opacity:0.8115"/>
		<stop  offset="0.7173" style="stop-color:#EE8A79;stop-opacity:0.7131"/>
		<stop  offset="0.9917" style="stop-color:#E54A30;stop-opacity:0.6033"/>
		<stop  offset="1" style="stop-color:#E5482E;stop-opacity:0.6"/>
	</linearGradient>
	<line class="st2" x1="192" y1="194" x2="798.5" y2="194"/>
	<linearGradient id="SVGID_3_" gradientUnits="userSpaceOnUse" x1="191.3179" y1="258" x2="797.8179" y2="258">
		<stop  offset="0" style="stop-color:#FFFFFF"/>
		<stop  offset="0.0985" style="stop-color:#FEF7F6;stop-opacity:0.9606"/>
		<stop  offset="0.2623" style="stop-color:#FBE0DC;stop-opacity:0.8951"/>
		<stop  offset="0.4713" style="stop-color:#F5BCB3;stop-opacity:0.8115"/>
		<stop  offset="0.7173" style="stop-color:#EE8A79;stop-opacity:0.7131"/>
		<stop  offset="0.9917" style="stop-color:#E54A30;stop-opacity:0.6033"/>
		<stop  offset="1" style="stop-color:#E5482E;stop-opacity:0.6"/>
	</linearGradient>
	<line class="st3" x1="191.32" y1="258" x2="797.82" y2="258"/>
	<linearGradient id="SVGID_4_" gradientUnits="userSpaceOnUse" x1="191.3179" y1="451" x2="797.8179" y2="451">
		<stop  offset="0" style="stop-color:#FFFFFF"/>
		<stop  offset="0.0985" style="stop-color:#FEF7F6;stop-opacity:0.9606"/>
		<stop  offset="0.2623" style="stop-color:#FBE0DC;stop-opacity:0.8951"/>
		<stop  offset="0.4713" style="stop-color:#F5BCB3;stop-opacity:0.8115"/>
		<stop  offset="0.7173" style="stop-color:#EE8A79;stop-opacity:0.7131"/>
		<stop  offset="0.9917" style="stop-color:#E54A30;stop-opacity:0.6033"/>
		<stop  offset="1" style="stop-color:#E5482E;stop-opacity:0.6"/>
	</linearGradient>
	<line class="st4" x1="191.32" y1="451" x2="797.82" y2="451"/>
	<linearGradient id="SVGID_5_" gradientUnits="userSpaceOnUse" x1="192.3179" y1="325" x2="799" y2="325">
		<stop  offset="0" style="stop-color:#FFFFFF"/>
		<stop  offset="0.0985" style="stop-color:#FEF7F6;stop-opacity:0.9606"/>
		<stop  offset="0.2623" style="stop-color:#FBE0DC;stop-opacity:0.8951"/>
		<stop  offset="0.4713" style="stop-color:#F5BCB3;stop-opacity:0.8115"/>
		<stop  offset="0.7173" style="stop-color:#EE8A79;stop-opacity:0.7131"/>
		<stop  offset="0.9917" style="stop-color:#E54A30;stop-opacity:0.6033"/>
		<stop  offset="1" style="stop-color:#E5482E;stop-opacity:0.6"/>
	</linearGradient>
	<line class="st5" x1="192.32" y1="325" x2="799" y2="325"/>
	
		<linearGradient id="SVGID_6_" gradientUnits="userSpaceOnUse" x1="191.3177" y1="387.9995" x2="797.8169" y2="387.9995" gradientTransform="matrix(1 1.584678e-03 -1.584678e-03 1 0.6652 -0.7832)">
		<stop  offset="0" style="stop-color:#FFFFFF"/>
		<stop  offset="0.0985" style="stop-color:#FEF7F6;stop-opacity:0.9606"/>
		<stop  offset="0.2623" style="stop-color:#FBE0DC;stop-opacity:0.8951"/>
		<stop  offset="0.4713" style="stop-color:#F5BCB3;stop-opacity:0.8115"/>
		<stop  offset="0.7173" style="stop-color:#EE8A79;stop-opacity:0.7131"/>
		<stop  offset="0.9917" style="stop-color:#E54A30;stop-opacity:0.6033"/>
		<stop  offset="1" style="stop-color:#E5482E;stop-opacity:0.6"/>
	</linearGradient>
	<line class="st6" x1="191.37" y1="387.52" x2="797.87" y2="388.48"/>
	<linearGradient id="SVGID_7_" gradientUnits="userSpaceOnUse" x1="293" y1="323.5" x2="293" y2="323.5">
		<stop  offset="0" style="stop-color:#FFFFFF"/>
		<stop  offset="0.0985" style="stop-color:#FEF7F6;stop-opacity:0.9606"/>
		<stop  offset="0.2623" style="stop-color:#FBE0DC;stop-opacity:0.8951"/>
		<stop  offset="0.4713" style="stop-color:#F5BCB3;stop-opacity:0.8115"/>
		<stop  offset="0.7173" style="stop-color:#EE8A79;stop-opacity:0.7131"/>
		<stop  offset="0.9917" style="stop-color:#E54A30;stop-opacity:0.6033"/>
		<stop  offset="1" style="stop-color:#E5482E;stop-opacity:0.6"/>
	</linearGradient>
	<path class="st7" d="M293,130c0,10.98,0,21.96,0,32.94c0,118.02,0,236.04,0,354.06"/>
	<linearGradient id="SVGID_8_" gradientUnits="userSpaceOnUse" x1="394" y1="323.5" x2="394" y2="323.5">
		<stop  offset="0" style="stop-color:#FFFFFF"/>
		<stop  offset="0.0985" style="stop-color:#FEF7F6;stop-opacity:0.9606"/>
		<stop  offset="0.2623" style="stop-color:#FBE0DC;stop-opacity:0.8951"/>
		<stop  offset="0.4713" style="stop-color:#F5BCB3;stop-opacity:0.8115"/>
		<stop  offset="0.7173" style="stop-color:#EE8A79;stop-opacity:0.7131"/>
		<stop  offset="0.9917" style="stop-color:#E54A30;stop-opacity:0.6033"/>
		<stop  offset="1" style="stop-color:#E5482E;stop-opacity:0.6"/>
	</linearGradient>
	<path class="st8" d="M394,130c0,10.98,0,21.96,0,32.94c0,118.02,0,236.04,0,354.06"/>
	<linearGradient id="SVGID_9_" gradientUnits="userSpaceOnUse" x1="697" y1="322.5" x2="697" y2="322.5">
		<stop  offset="0" style="stop-color:#FFFFFF"/>
		<stop  offset="0.0985" style="stop-color:#FEF7F6;stop-opacity:0.9606"/>
		<stop  offset="0.2623" style="stop-color:#FBE0DC;stop-opacity:0.8951"/>
		<stop  offset="0.4713" style="stop-color:#F5BCB3;stop-opacity:0.8115"/>
		<stop  offset="0.7173" style="stop-color:#EE8A79;stop-opacity:0.7131"/>
		<stop  offset="0.9917" style="stop-color:#E54A30;stop-opacity:0.6033"/>
		<stop  offset="1" style="stop-color:#E5482E;stop-opacity:0.6"/>
	</linearGradient>
	<path class="st9" d="M697,129c0,10.98,0,21.96,0,32.94c0,118.02,0,236.04,0,354.06"/>
	<linearGradient id="SVGID_10_" gradientUnits="userSpaceOnUse" x1="596" y1="322.5" x2="596" y2="322.5">
		<stop  offset="0" style="stop-color:#FFFFFF"/>
		<stop  offset="0.0985" style="stop-color:#FEF7F6;stop-opacity:0.9606"/>
		<stop  offset="0.2623" style="stop-color:#FBE0DC;stop-opacity:0.8951"/>
		<stop  offset="0.4713" style="stop-color:#F5BCB3;stop-opacity:0.8115"/>
		<stop  offset="0.7173" style="stop-color:#EE8A79;stop-opacity:0.7131"/>
		<stop  offset="0.9917" style="stop-color:#E54A30;stop-opacity:0.6033"/>
		<stop  offset="1" style="stop-color:#E5482E;stop-opacity:0.6"/>
	</linearGradient>
	<path class="st10" d="M596,129c0,10.98,0,21.96,0,32.94c0,118.02,0,236.04,0,354.06"/>
	<linearGradient id="SVGID_11_" gradientUnits="userSpaceOnUse" x1="495" y1="325.5" x2="495" y2="325.5">
		<stop  offset="0" style="stop-color:#FFFFFF"/>
		<stop  offset="0.0985" style="stop-color:#FEF7F6;stop-opacity:0.9606"/>
		<stop  offset="0.2623" style="stop-color:#FBE0DC;stop-opacity:0.8951"/>
		<stop  offset="0.4713" style="stop-color:#F5BCB3;stop-opacity:0.8115"/>
		<stop  offset="0.7173" style="stop-color:#EE8A79;stop-opacity:0.7131"/>
		<stop  offset="0.9917" style="stop-color:#E54A30;stop-opacity:0.6033"/>
		<stop  offset="1" style="stop-color:#E5482E;stop-opacity:0.6"/>
	</linearGradient>
	<path class="st11" d="M495,132c0,10.98,0,21.96,0,32.94c0,118.02,0,236.04,0,354.06"/>
	<g id="Capa_3">
	</g>
	<rect x="232.96" y="154.52" class="st12" width="35.04" height="34.57"/>
	<text transform="matrix(1 0 0 1 232.9629 175.8184)" class="st13 st14">0</text>
	<rect x="314.4" y="154.12" class="st12" width="58.6" height="34.57"/>
	<text transform="matrix(1 0 0 1 314.4019 175.4211)" class="st13 st14">255</text>
	<rect x="415.4" y="154.12" class="st12" width="58.6" height="34.57"/>
	<text transform="matrix(1 0 0 1 415.4019 175.4211)" class="st13 st14">200</text>
	<rect x="516.01" y="154.12" class="st12" width="58.6" height="34.57"/>
	<text transform="matrix(1 0 0 1 516.0128 175.4213)" class="st13 st14">100</text>
	<rect x="620.01" y="154.12" class="st12" width="58.6" height="34.57"/>
	<text transform="matrix(1 0 0 1 620.0128 175.4213)" class="st13 st14">2</text>
	<rect x="719.01" y="158.12" class="st12" width="58.6" height="34.57"/>
	<text transform="matrix(1 0 0 1 719.0128 179.4213)" class="st13 st14">122</text>
	<rect x="221.01" y="217.12" class="st12" width="58.6" height="34.57"/>
	<text transform="matrix(1 0 0 1 221.0123 238.4213)" class="st13 st14">255</text>
	<rect x="218.01" y="285.12" class="st12" width="58.6" height="34.57"/>
	<text transform="matrix(1 0 0 1 218.0123 306.4213)" class="st13 st14">255</text>
	<rect x="218.01" y="353.12" class="st12" width="58.6" height="34.57"/>
	<text transform="matrix(1 0 0 1 218.0123 374.4213)" class="st13 st14">75</text>
	<rect x="162.01" y="159.12" class="st12" width="58.6" height="34.57"/>
	<text transform="matrix(1 0 0 1 162.0123 180.4213)" class="st13 st14">0</text>
	<rect x="161.77" y="222.12" class="st12" width="58.6" height="34.57"/>
	<text transform="matrix(1 0 0 1 161.7689 243.4211)" class="st13 st14">1</text>
	<rect x="161.77" y="285.12" class="st12" width="58.6" height="34.57"/>
	<text transform="matrix(1 0 0 1 161.7692 306.4212)" class="st13 st14">2</text>
	<rect x="161.77" y="338.12" class="st12" width="58.6" height="34.57"/>
	<text transform="matrix(1 0 0 1 161.7692 359.4212)" class="st13 st14">3</text>
	<rect x="161.77" y="402.12" class="st12" width="58.6" height="34.57"/>
	<text transform="matrix(1 0 0 1 161.7692 423.4207)" class="st13 st14">4</text>
	<rect x="161.77" y="466.12" class="st12" width="58.6" height="34.57"/>
	<text transform="matrix(1 0 0 1 161.7692 487.4207)" class="st13 st14">5</text>
	<rect x="239.99" y="98.48" class="st12" width="35.04" height="34.57"/>
	<text transform="matrix(1 0 0 1 239.9873 119.7814)" class="st13 st14">0</text>
	<rect x="321.43" y="98.08" class="st12" width="58.6" height="34.57"/>
	<text transform="matrix(1 0 0 1 321.4263 119.3842)" class="st13 st14">1</text>
	<rect x="422.43" y="98.08" class="st12" width="58.6" height="34.57"/>
	<text transform="matrix(1 0 0 1 422.4263 119.3842)" class="st13 st14">2</text>
	<rect x="523.04" y="98.08" class="st12" width="58.6" height="34.57"/>
	<text transform="matrix(1 0 0 1 523.0372 119.3843)" class="st13 st14">3</text>
	<rect x="627.04" y="98.08" class="st12" width="58.6" height="34.57"/>
	<text transform="matrix(1 0 0 1 627.0372 119.3843)" class="st13 st14">4</text>
	<rect x="726.04" y="102.08" class="st12" width="58.6" height="34.57"/>
	<text transform="matrix(1 0 0 1 726.0372 123.3843)" class="st13 st14">5</text>
	<rect x="313.46" y="219.2" class="st12" width="58.6" height="34.57"/>
	<text transform="matrix(1 0 0 1 313.4637 240.4953)" class="st13 st14">255</text>
	<rect x="414.46" y="219.2" class="st12" width="58.6" height="34.57"/>
	<text transform="matrix(1 0 0 1 414.4637 240.4953)" class="st13 st14">140</text>
	<rect x="515.07" y="219.2" class="st12" width="58.6" height="34.57"/>
	<text transform="matrix(1 0 0 1 515.074 240.4954)" class="st13 st14">100</text>
	<rect x="619.07" y="219.2" class="st12" width="58.6" height="34.57"/>
	<text transform="matrix(1 0 0 1 619.074 240.4954)" class="st13 st14">2</text>
	<rect x="718.07" y="223.2" class="st12" width="58.6" height="34.57"/>
	<text transform="matrix(1 0 0 1 718.074 244.4954)" class="st13 st14">78</text>
	<rect x="313.46" y="282.2" class="st12" width="58.6" height="34.57"/>
	<text transform="matrix(1 0 0 1 313.4641 303.4952)" class="st13 st14">76</text>
	<rect x="414.46" y="282.2" class="st12" width="58.6" height="34.57"/>
	<text transform="matrix(1 0 0 1 414.4641 303.4952)" class="st13 st14">200</text>
	<rect x="515.07" y="282.2" class="st12" width="58.6" height="34.57"/>
	<text transform="matrix(1 0 0 1 515.0744 303.4954)" class="st13 st14">33</text>
	<rect x="619.07" y="282.2" class="st12" width="58.6" height="34.57"/>
	<text transform="matrix(1 0 0 1 619.0744 303.4954)" class="st13 st14">22</text>
	<rect x="718.07" y="286.2" class="st12" width="58.6" height="34.57"/>
	<text transform="matrix(1 0 0 1 718.0744 307.4954)" class="st13 st14">240</text>
	<rect x="313.46" y="347.2" class="st12" width="58.6" height="34.57"/>
	<text transform="matrix(1 0 0 1 313.4641 368.4952)" class="st13 st14">60</text>
	<rect x="414.46" y="347.2" class="st12" width="58.6" height="34.57"/>
	<text transform="matrix(1 0 0 1 414.4641 368.4952)" class="st13 st14">0</text>
	<rect x="515.07" y="347.2" class="st12" width="58.6" height="34.57"/>
	<text transform="matrix(1 0 0 1 515.0744 368.4954)" class="st13 st14">0</text>
	<rect x="619.07" y="347.2" class="st12" width="58.6" height="34.57"/>
	<text transform="matrix(1 0 0 1 619.0744 368.4954)" class="st13 st14">50</text>
	<rect x="718.07" y="351.2" class="st12" width="58.6" height="34.57"/>
	<text transform="matrix(1 0 0 1 718.0744 372.4954)" class="st13 st14">78</text>
	<rect x="222.74" y="418.16" class="st12" width="58.6" height="34.57"/>
	<text transform="matrix(1 0 0 1 222.738 439.4578)" class="st13 st14">200</text>
	<rect x="318.19" y="412.23" class="st12" width="58.6" height="34.57"/>
	<text transform="matrix(1 0 0 1 318.1893 433.5323)" class="st13 st14">255</text>
	<rect x="419.19" y="412.23" class="st12" width="58.6" height="34.57"/>
	<text transform="matrix(1 0 0 1 419.1893 433.5323)" class="st13 st14">123</text>
	<rect x="519.8" y="412.23" class="st12" width="58.6" height="34.57"/>
	<text transform="matrix(1 0 0 1 519.7997 433.5324)" class="st13 st14">230</text>
	<rect x="623.8" y="412.23" class="st12" width="58.6" height="34.57"/>
	<text transform="matrix(1 0 0 1 623.7997 433.5324)" class="st13 st14">2</text>
	
		<rect x="734.79" y="404.63" transform="matrix(1.584678e-03 -1 1 1.584678e-03 316.9603 1185.3121)" class="st12" width="34.57" height="58.6"/>
	<text transform="matrix(1 1.584678e-03 -1.584678e-03 1 722.7707 437.894)" class="st13 st14">78</text>
	<rect x="222.74" y="483.16" class="st12" width="58.6" height="34.57"/>
	<text transform="matrix(1 0 0 1 222.738 504.4578)" class="st13 st14">55</text>
	<rect x="318.19" y="477.23" class="st12" width="58.6" height="34.57"/>
	<text transform="matrix(1 0 0 1 318.1893 498.5323)" class="st13 st14">255</text>
	<rect x="419.19" y="477.23" class="st12" width="58.6" height="34.57"/>
	<text transform="matrix(1 0 0 1 419.1893 498.5323)" class="st13 st14">134</text>
	<rect x="519.8" y="477.23" class="st12" width="58.6" height="34.57"/>
	<text transform="matrix(1 0 0 1 519.7997 498.5324)" class="st13 st14">65</text>
	<rect x="623.8" y="477.23" class="st12" width="58.6" height="34.57"/>
	<text transform="matrix(1 0 0 1 623.7997 498.5324)" class="st13 st14">2</text>
	<rect x="722.8" y="481.23" class="st12" width="58.6" height="34.57"/>
	<text transform="matrix(1 0 0 1 722.7997 502.5324)" class="st13 st14">78</text>
	<rect x="115.05" y="151.94" class="st12" width="24.69" height="351.85"/>
	<text transform="matrix(1.05 0 0 1.04 128.5508 248.9907)" class="st13 st15">Filas</text>
	<rect x="229.32" y="65.81" class="st12" width="530.86" height="29.63"/>
	<text transform="matrix(1.28 0 0 1.08 399.522 88.1147)" class="st13 st14 st16">Columnas</text>
	<rect x="199.14" y="598.54" class="st12" width="530.86" height="29.63"/>
	<text transform="matrix(1.28 0 0 1.08 410.847 620.8429)" class="st13 st14 st16">eje=0</text>
</g>
<g id="Capa_5">
	<g>
		<g>
			<line class="st17" x1="63.41" y1="158.24" x2="63.41" y2="509.8"/>
			<g>
				<polygon class="st18" points="63.41,130 47.15,169.8 63.41,160.35 79.67,169.8 				"/>
			</g>
		</g>
	</g>
	<g>
		<g>
			<line class="st17" x1="811.75" y1="572.63" x2="86.67" y2="569.52"/>
			<g>
				<polygon class="st18" points="839.99,572.75 800.26,556.31 809.64,572.62 800.12,588.83 				"/>
			</g>
		</g>
	</g>
	<path id="SVGID_x5F_12_x5F_" class="st12" d="M32.54,113.09v315.7"/>
	<text>	<textPath  xlink:href="#SVGID_x5F_12_x5F_" startOffset="41.0889%">
<tspan  class="st13 st14" style="letter-spacing:86.72;">Eje=1</tspan>	</textPath>
</text>
</g>
</svg>
